<?xml version="1.0" encoding="UTF-8"?>
<!DOCTYPE svg PUBLIC "-//W3C//DTD SVG 1.1//EN" "http://www.w3.org/Graphics/SVG/1.1/DTD/svg11.dtd">
<!-- Creator: CorelDRAW X7 -->
<svg xmlns="http://www.w3.org/2000/svg" xml:space="preserve" width="200px" height="290px" version="1.1" style="shape-rendering:geometricPrecision; text-rendering:geometricPrecision; image-rendering:optimizeQuality; fill-rule:evenodd; clip-rule:evenodd"
viewBox="0 0 200 290"
 xmlns:xlink="http://www.w3.org/1999/xlink">
 <defs>
  <style type="text/css">
   <![CDATA[
    .fil0 {fill:#51B4BD}
   ]]>
  </style>
 </defs>
 <g id="Слой_x0020_1">
  <metadata id="CorelCorpID_0Corel-Layer"/>
  <path class="fil0" d="M197 72c-1,-4 -3,-8 -5,-12 -18,-45 -59,-61 -92,-61 -44,0 -92,30 -98,90l0 13c0,0 0,5 0,7 4,30 27,60 44,89 18,31 37,61 56,92 11,-20 23,-40 34,-60 3,-5 7,-11 10,-16 2,-4 6,-8 8,-11 18,-33 48,-67 48,-101l0 -13c0,-4 -4,-17 -5,-17l0 0zm-95 62c-13,0 -27,-7 -34,-25 -1,-2 -1,-8 -1,-8l0 -8c0,-23 19,-33 36,-33 20,0 36,16 36,37 0,20 -17,37 -37,37l0 0zm0 0z"/>
 </g>
</svg>
