<?xml version="1.0" encoding="UTF-8"?>
<!DOCTYPE svg PUBLIC "-//W3C//DTD SVG 1.1//EN" "http://www.w3.org/Graphics/SVG/1.1/DTD/svg11.dtd">
<!-- Creator: CorelDRAW X7 -->
<svg xmlns="http://www.w3.org/2000/svg" xml:space="preserve" width="200px" height="163px" version="1.1" style="shape-rendering:geometricPrecision; text-rendering:geometricPrecision; image-rendering:optimizeQuality; fill-rule:evenodd; clip-rule:evenodd"
viewBox="0 0 200 163"
 xmlns:xlink="http://www.w3.org/1999/xlink">
 <defs>
  <style type="text/css">
   <![CDATA[
    .fil0 {fill:#CECECE}
   ]]>
  </style>
 </defs>
 <g id="Слой_x0020_1">
  <metadata id="CorelCorpID_0Corel-Layer"/>
  <g id="_764563584">
   <g>
    <path class="fil0" d="M81 25c-45,0 -81,28 -81,62 0,17 9,32 23,43 -1,11 -3,25 -11,33 16,0 33,-9 42,-17 8,3 17,3 27,3 45,0 80,-28 80,-62 0,-34 -35,-62 -80,-62l0 0zm0 0z"/>
    <path class="fil0" d="M188 93c6,-9 10,-20 10,-31 0,-34 -35,-62 -80,-62 -20,0 -37,5 -51,14 6,-1 14,-1 20,-1 48,0 87,31 87,68 0,15 -7,28 -16,40 11,8 26,17 42,17 -12,-11 -12,-34 -12,-45l0 0zm0 0z"/>
   </g>
  </g>
 </g>
</svg>
