<?xml version="1.0" encoding="UTF-8"?>
<!DOCTYPE svg PUBLIC "-//W3C//DTD SVG 1.1//EN" "http://www.w3.org/Graphics/SVG/1.1/DTD/svg11.dtd">
<!-- Creator: CorelDRAW X7 -->
<svg xmlns="http://www.w3.org/2000/svg" xml:space="preserve" width="200px" height="265px" version="1.1" style="shape-rendering:geometricPrecision; text-rendering:geometricPrecision; image-rendering:optimizeQuality; fill-rule:evenodd; clip-rule:evenodd"
viewBox="0 0 200 265"
 xmlns:xlink="http://www.w3.org/1999/xlink">
 <defs>
  <style type="text/css">
   <![CDATA[
    .fil0 {fill:#ECD474}
   ]]>
  </style>
 </defs>
 <g id="Слой_x0020_1">
  <metadata id="CorelCorpID_0Corel-Layer"/>
  <path class="fil0" d="M177 0l-153 0c-13,0 -24,10 -24,22l0 228c0,4 1,8 3,10 2,3 6,5 10,5 3,0 7,-1 10,-4l69 -59c2,-2 5,-3 9,-3 3,0 6,1 8,3l68 59c4,3 8,4 11,4 6,0 12,-5 12,-15l0 -228c0,-12 -10,-22 -23,-22l0 0z"/>
 </g>
</svg>
