<?xml version="1.0" encoding="UTF-8"?>
<!DOCTYPE svg PUBLIC "-//W3C//DTD SVG 1.1//EN" "http://www.w3.org/Graphics/SVG/1.1/DTD/svg11.dtd">
<!-- Creator: CorelDRAW X7 -->
<svg xmlns="http://www.w3.org/2000/svg" xml:space="preserve" width="250px" height="166px" version="1.1" style="shape-rendering:geometricPrecision; text-rendering:geometricPrecision; image-rendering:optimizeQuality; fill-rule:evenodd; clip-rule:evenodd"
viewBox="0 0 250 166"
 xmlns:xlink="http://www.w3.org/1999/xlink">
 <defs>
  <style type="text/css">
   <![CDATA[
    .fil0 {fill:#18B2C0}
   ]]>
  </style>
 </defs>
 <g id="Слой_x0020_1">
  <metadata id="CorelCorpID_0Corel-Layer"/>
  <path class="fil0" d="M208 158l-73 -42 -41 0c-4,3 -9,6 -14,8l0 27c0,8 -7,15 -15,15l0 0c-8,0 -15,-7 -15,-15l0 -27c-4,-2 -9,-5 -12,-8l-2 0c-20,0 -36,-17 -36,-36l0 0c0,-20 16,-36 36,-36l99 0 73 -43c8,-4 16,1 16,10l0 42c15,1 26,12 26,27 0,14 -11,26 -26,26l0 43c0,8 -8,13 -16,9z"/>
 </g>
</svg>
