<?xml version="1.0" encoding="UTF-8"?>
<!DOCTYPE svg PUBLIC "-//W3C//DTD SVG 1.1//EN" "http://www.w3.org/Graphics/SVG/1.1/DTD/svg11.dtd">
<!-- Creator: CorelDRAW X7 -->
<svg xmlns="http://www.w3.org/2000/svg" xml:space="preserve" width="200px" height="200px" version="1.1" style="shape-rendering:geometricPrecision; text-rendering:geometricPrecision; image-rendering:optimizeQuality; fill-rule:evenodd; clip-rule:evenodd"
viewBox="0 0 200 200"
 xmlns:xlink="http://www.w3.org/1999/xlink">
 <defs>
  <style type="text/css">
   <![CDATA[
    .fil0 {fill:#8C8C8C}
   ]]>
  </style>
 </defs>
 <g id="Слой_x0020_1">
  <metadata id="CorelCorpID_0Corel-Layer"/>
  <path class="fil0" d="M171 29c-19,-19 -44,-29 -71,-29 -27,0 -52,10 -71,29 -39,39 -39,103 0,142 19,19 44,29 71,29 27,0 52,-10 71,-29 39,-39 39,-103 0,-142l0 0zm7 109l-23 -24c1,-4 2,-9 2,-14 0,-5 -1,-10 -2,-15l23 -23c12,24 12,52 0,76l0 0zm-78 5c-12,0 -22,-4 -31,-12 -8,-9 -12,-19 -12,-31 0,-12 4,-22 12,-31 9,-8 19,-12 31,-12 12,0 22,4 31,12 8,9 12,19 12,31 0,12 -4,22 -12,31 -9,8 -19,12 -31,12l0 0zm37 -121l-23 23c-5,-1 -9,-2 -14,-2 -5,0 -10,1 -14,2l-24 -23c12,-6 25,-9 38,-9 13,0 26,3 37,9l0 0zm-115 40l23 24c-1,4 -2,9 -2,14 0,5 1,9 2,14l-23 23c-12,-23 -11,-51 0,-75l0 0zm40 116l23 -23c5,1 10,2 15,2 5,0 10,-1 14,-2l24 23c-12,6 -25,9 -38,9 -13,0 -26,-3 -38,-9l0 0zm99 -17z"/>
 </g>
</svg>
