<?xml version="1.0" encoding="UTF-8"?>
<!DOCTYPE svg PUBLIC "-//W3C//DTD SVG 1.1//EN" "http://www.w3.org/Graphics/SVG/1.1/DTD/svg11.dtd">
<!-- Creator: CorelDRAW X7 -->
<svg xmlns="http://www.w3.org/2000/svg" xml:space="preserve" width="250px" height="152px" version="1.1" style="shape-rendering:geometricPrecision; text-rendering:geometricPrecision; image-rendering:optimizeQuality; fill-rule:evenodd; clip-rule:evenodd"
viewBox="0 0 250 152"
 xmlns:xlink="http://www.w3.org/1999/xlink">
 <defs>
  <style type="text/css">
   <![CDATA[
    .fil0 {fill:#DEDEDE;fill-rule:nonzero}
   ]]>
  </style>
 </defs>
 <g id="Слой_x0020_1">
  <metadata id="CorelCorpID_0Corel-Layer"/>
  <path class="fil0" d="M159 144l0 -4 83 0 0 4 -83 0zm-123 -4l92 0 0 4 -92 0 0 -4zm-28 -56l20 42 0 3 -20 -42 0 -3zm22 -39c-3,3 -9,5 -17,7l-3 -7 20 0zm95 0l23 52c0,0 0,0 0,0l-13 0 -24 -52 9 0c2,0 3,0 5,0l0 0zm17 19c13,2 19,5 20,6 -1,1 -6,3 -15,5l-5 -11zm28 -29c4,-1 8,-3 12,-6 3,2 6,3 10,3 7,0 15,-2 23,-6l9 21c-12,9 -18,22 -13,32 -6,3 -11,6 -17,8 -12,5 -24,8 -37,9l-6 -13c16,-3 19,-9 19,-13 0,-11 -22,-14 -32,-15l-5 -10c13,-2 25,-5 37,-10l0 0zm38 -24l3 7c-7,4 -14,6 -19,6 5,-4 11,-8 16,-13l0 0zm10 63c-2,-5 2,-14 10,-20l4 9c-5,4 -9,8 -14,11l0 0zm20 23l-45 0c1,-1 3,-2 4,-2 11,-4 21,-10 30,-17l11 19zm-79 12l0 -4 83 0 0 4 -83 0zm0 11l0 -3 83 0 0 3 -83 0zm0 8l83 0 0 4 -83 0 0 -4zm-23 -23c0,0 14,0 15,0l0 39 -15 0 0 -39zm-100 23l92 0 0 4 -92 0 0 -4zm92 -19l-92 0 0 -4 92 0 0 4zm-94 -12l-3 -8c1,0 1,0 2,0 13,0 22,4 26,8l-25 0zm94 23l-92 0 0 -3 92 0 0 3zm-12 -44c-14,-1 -21,-4 -23,-6 1,-1 7,-4 18,-6l5 12zm-77 -31l63 0 5 12c-10,1 -22,5 -22,13 0,12 25,14 35,15l6 12 -58 0c-2,-10 -17,-16 -35,-16 -2,0 -4,0 -6,0l-10 -22c12,-2 20,-7 22,-14l0 0zm-31 15l20 42 0 4 -20 -42 0 -4zm241 38l-16 -25c2,-2 4,-4 7,-6 1,-1 1,-3 0,-5l-27 -59c-1,-2 -2,-3 -3,-3 -2,0 -3,0 -4,1 -11,12 -24,21 -39,27 -15,6 -31,9 -47,9l-116 0c-1,0 -3,1 -3,2 -1,1 -1,1 -1,2l0 0 0 47 0 0c0,1 0,1 0,2l28 59 0 0c1,2 2,3 4,3l214 0c2,0 4,-2 4,-4l0 -47c0,-1 0,-2 -1,-3l0 0z"/>
 </g>
</svg>
