<?xml version="1.0" encoding="UTF-8"?>
<!DOCTYPE svg PUBLIC "-//W3C//DTD SVG 1.1//EN" "http://www.w3.org/Graphics/SVG/1.1/DTD/svg11.dtd">
<!-- Creator: CorelDRAW X7 -->
<svg xmlns="http://www.w3.org/2000/svg" xml:space="preserve" width="200px" height="200px" version="1.1" style="shape-rendering:geometricPrecision; text-rendering:geometricPrecision; image-rendering:optimizeQuality; fill-rule:evenodd; clip-rule:evenodd"
viewBox="0 0 200 200"
 xmlns:xlink="http://www.w3.org/1999/xlink">
 <defs>
  <style type="text/css">
   <![CDATA[
    .fil0 {fill:#8C8C8C}
   ]]>
  </style>
 </defs>
 <g id="Слой_x0020_1">
  <metadata id="CorelCorpID_0Corel-Layer"/>
  <g id="_761258208">
   <g>
    <path class="fil0" d="M99 0c-55,0 -99,44 -99,99 0,56 44,101 99,101 56,0 101,-44 101,-101 0,-55 -44,-99 -101,-99l0 0zm22 155c-6,2 -10,3 -13,4 -3,1 -6,2 -11,2 -6,0 -10,-1 -14,-4 -4,-4 -6,-8 -6,-12 0,-2 0,-3 0,-5 0,-2 1,-5 1,-7l7 -23c1,-2 1,-4 1,-6 0,-2 1,-5 1,-6 0,-3 -1,-5 -2,-6 -1,-1 -4,-2 -7,-2 -2,0 -3,0 -5,1 -2,1 -3,1 -4,1l2 -7c4,-2 8,-4 12,-5 4,-1 7,-2 10,-2 6,0 11,1 15,5 3,3 5,6 5,11 0,1 0,3 0,5 0,3 -1,6 -1,7l-6 22c-1,2 -1,4 -1,6 0,3 -1,5 -1,6 0,3 1,5 2,6 1,1 3,2 7,2 1,0 3,0 6,-1 2,-1 3,-1 4,-1l-2 9zm-1 -93c-4,4 -7,5 -11,5 -4,0 -7,-1 -11,-5 -3,-3 -4,-6 -4,-10 0,-4 1,-8 4,-11 4,-3 7,-4 11,-4 4,0 7,1 11,4 3,3 4,7 4,11 0,5 -1,8 -4,10l0 0zm0 0z"/>
   </g>
  </g>
 </g>
</svg>
