<?xml version="1.0" encoding="UTF-8"?>
<!DOCTYPE svg PUBLIC "-//W3C//DTD SVG 1.1//EN" "http://www.w3.org/Graphics/SVG/1.1/DTD/svg11.dtd">
<!-- Creator: CorelDRAW X7 -->
<svg xmlns="http://www.w3.org/2000/svg" xml:space="preserve" width="200px" height="200px" version="1.1" style="shape-rendering:geometricPrecision; text-rendering:geometricPrecision; image-rendering:optimizeQuality; fill-rule:evenodd; clip-rule:evenodd"
viewBox="0 0 200 200"
 xmlns:xlink="http://www.w3.org/1999/xlink">
 <defs>
  <style type="text/css">
   <![CDATA[
    .fil0 {fill:#4CABB4}
   ]]>
  </style>
 </defs>
 <g id="Слой_x0020_1">
  <metadata id="CorelCorpID_0Corel-Layer"/>
  <path class="fil0" d="M88 76l-83 83c-4,4 -5,7 -5,11 0,5 1,8 5,11l13 13c3,3 6,5 11,5 4,0 8,-2 11,-5l83 -82c-9,-4 -15,-8 -22,-14 -6,-6 -10,-14 -13,-22l0 0zm-46 92c-2,2 -4,2 -6,2 -2,0 -4,0 -5,-2 -1,-1 -2,-3 -2,-5 0,-2 1,-4 2,-6 1,-1 3,-2 5,-2 2,0 4,1 6,2 1,2 2,4 2,6 0,2 -1,4 -2,5l0 0zm0 0z"/>
  <path class="fil0" d="M199 56c-1,-1 -2,-2 -3,-2 -1,0 -4,2 -9,5 -5,2 -10,6 -16,9 -6,4 -9,6 -10,6l-23 -13 0 -27 35 -20c2,-1 2,-3 2,-4 0,-1 0,-2 -2,-3 -3,-3 -7,-4 -13,-6 -5,-1 -10,-2 -14,-2 -15,0 -28,6 -39,16 -10,11 -16,24 -16,39 0,15 6,28 16,38 11,11 24,16 39,16 11,0 22,-3 31,-10 10,-7 16,-16 20,-26 2,-6 3,-10 3,-13 0,-2 -1,-3 -1,-3l0 0zm0 0z"/>
 </g>
</svg>
