<?xml version="1.0" encoding="UTF-8"?>
<!DOCTYPE svg PUBLIC "-//W3C//DTD SVG 1.1//EN" "http://www.w3.org/Graphics/SVG/1.1/DTD/svg11.dtd">
<!-- Creator: CorelDRAW X7 -->
<svg xmlns="http://www.w3.org/2000/svg" xml:space="preserve" width="200px" height="141px" version="1.1" style="shape-rendering:geometricPrecision; text-rendering:geometricPrecision; image-rendering:optimizeQuality; fill-rule:evenodd; clip-rule:evenodd"
viewBox="0 0 200 141"
 xmlns:xlink="http://www.w3.org/1999/xlink">
 <defs>
  <style type="text/css">
   <![CDATA[
    .fil0 {fill:#8C8C8C}
   ]]>
  </style>
 </defs>
 <g id="Слой_x0020_1">
  <metadata id="CorelCorpID_0Corel-Layer"/>
  <path class="fil0" d="M7 94l0 -85c0,-5 4,-9 9,-9l85 0c4,0 8,4 8,9l0 85c0,1 -1,3 -3,3l-96 0c-2,0 -3,-2 -3,-3l0 0zm69 29c0,10 -8,18 -18,18 -10,0 -18,-8 -18,-18 0,-10 8,-18 18,-18 10,0 18,8 18,18l0 0zm-9 0c0,-5 -4,-9 -9,-9 -5,0 -9,4 -9,9 0,5 4,9 9,9 5,0 9,-4 9,-9l0 0zm-24 -18l-40 0c-2,0 -3,2 -3,3l0 9c0,1 1,3 3,3l32 0c1,-6 3,-11 8,-15l0 0zm126 18c0,10 -8,18 -18,18 -10,0 -18,-8 -18,-18 0,-10 8,-18 18,-18 10,0 18,8 18,18l0 0zm-9 0c0,-5 -4,-9 -9,-9 -5,0 -9,4 -9,9 0,5 4,9 9,9 5,0 9,-4 9,-9l0 0zm40 -15l0 9c0,1 -1,3 -3,3l-23 0c-2,-12 -11,-20 -23,-20 -12,0 -22,8 -23,20l-47 0c-1,-6 -4,-11 -8,-15l44 0 0 -81c0,-3 3,-6 6,-6l27 0c8,0 15,4 19,10l17 26c3,4 4,8 4,13l0 38 7 0c2,0 3,2 3,3l0 0zm-29 -54l-14 -19c0,-1 -1,-2 -2,-2l-22 0c-1,0 -3,2 -3,3l0 20c0,2 2,3 3,3l36 0c2,0 3,-3 2,-5l0 0zm0 0z"/>
 </g>
</svg>
