<?xml version="1.0" encoding="UTF-8"?>
<!DOCTYPE svg PUBLIC "-//W3C//DTD SVG 1.1//EN" "http://www.w3.org/Graphics/SVG/1.1/DTD/svg11.dtd">
<!-- Creator: CorelDRAW X7 -->
<svg xmlns="http://www.w3.org/2000/svg" xml:space="preserve" width="200px" height="171px" version="1.1" style="shape-rendering:geometricPrecision; text-rendering:geometricPrecision; image-rendering:optimizeQuality; fill-rule:evenodd; clip-rule:evenodd"
viewBox="0 0 200 171"
 xmlns:xlink="http://www.w3.org/1999/xlink">
 <defs>
  <style type="text/css">
   <![CDATA[
    .fil0 {fill:#8C8C8C}
   ]]>
  </style>
 </defs>
 <g id="Слой_x0020_1">
  <metadata id="CorelCorpID_0Corel-Layer"/>
  <g id="_975188448">
   <path class="fil0" d="M62 138l-55 0c-3,0 -5,2 -5,5l0 23c0,3 2,5 5,5l55 0c3,0 5,-2 5,-5l0 -23c0,-3 -2,-5 -5,-5z"/>
   <path class="fil0" d="M146 142c0,-2 -2,-4 -5,-4l-55 0c-3,0 -5,2 -5,5l0 23c0,3 2,5 5,5l55 0c3,0 5,-2 5,-4 0,-1 0,-24 0,-25z"/>
   <path class="fil0" d="M46 125l55 0c3,0 6,-2 6,-5l0 -23c0,-2 -2,-4 -5,-5 0,0 -57,0 -57,0 -3,1 -4,3 -4,5l0 23c0,3 2,5 5,5z"/>
   <path class="fil0" d="M27 120l0 -23c0,-2 -1,-4 -4,-5 -19,0 -23,0 -23,0l0 33 22 0c3,0 5,-2 5,-5z"/>
   <path class="fil0" d="M125 92c-3,1 -5,3 -5,5l0 23c0,3 3,5 6,5l55 0c3,0 5,-2 5,-5l0 -23c0,-3 -2,-5 -5,-5 -4,0 -53,0 -56,0z"/>
   <path class="fil0" d="M165 138c-3,0 -6,2 -6,5l0 23c0,3 3,5 6,5l35 0 0 -33 -35 0 0 0z"/>
   <path class="fil0" d="M66 74l0 -23c0,-3 -2,-5 -5,-5l-56 0c-3,0 -5,2 -5,5l0 23c0,3 2,5 5,5l56 0c3,0 5,-2 5,-5z"/>
   <path class="fil0" d="M79 51l0 23c0,3 2,5 5,5l56 0c3,0 5,-2 5,-5l0 -23c0,-3 -2,-5 -5,-5l-56 0c-3,0 -5,2 -5,5z"/>
   <path class="fil0" d="M45 33l55 0c3,0 5,-2 5,-5l0 -23c0,-3 -2,-5 -5,-5l-55 0c-3,0 -6,2 -6,5l0 23c0,3 3,5 6,5z"/>
   <path class="fil0" d="M26 28l0 -23c0,-3 -2,-5 -5,-5l-21 0 0 33 21 0c3,0 5,-2 5,-5z"/>
  </g>
 </g>
</svg>
