<?xml version="1.0" encoding="UTF-8"?>
<!DOCTYPE svg PUBLIC "-//W3C//DTD SVG 1.1//EN" "http://www.w3.org/Graphics/SVG/1.1/DTD/svg11.dtd">
<!-- Creator: CorelDRAW X7 -->
<svg xmlns="http://www.w3.org/2000/svg" xml:space="preserve" width="200px" height="202px" version="1.1" style="shape-rendering:geometricPrecision; text-rendering:geometricPrecision; image-rendering:optimizeQuality; fill-rule:evenodd; clip-rule:evenodd"
viewBox="0 0 200 202"
 xmlns:xlink="http://www.w3.org/1999/xlink">
 <defs>
  <style type="text/css">
   <![CDATA[
    .fil0 {fill:#8C8C8C}
   ]]>
  </style>
 </defs>
 <g id="Слой_x0020_1">
  <metadata id="CorelCorpID_0Corel-Layer"/>
  <path class="fil0" d="M64 84c4,0 8,-4 8,-9l0 -32c0,-14 12,-26 26,-26 15,0 26,12 26,26l0 32c0,5 4,9 9,9 4,0 8,-4 8,-9l0 -32c0,-23 -19,-42 -43,-42 -23,0 -42,19 -42,42l0 32c0,5 3,9 8,9l0 0zm0 0z"/>
  <path class="fil0" d="M192 65l-43 0 0 10c0,10 -8,17 -17,17 -9,0 -16,-7 -16,-17l0 -10 -36 0 0 10c0,10 -7,17 -16,17 -9,0 -17,-7 -17,-17l0 -10 -44 0c-2,0 -3,2 -3,4l29 117c1,7 9,12 15,12l107 0c7,0 14,-5 16,-12l28 -117c1,-2 0,-4 -3,-4l0 0zm0 0z"/>
 </g>
</svg>
