<?xml version="1.0" encoding="UTF-8"?>
<!DOCTYPE svg PUBLIC "-//W3C//DTD SVG 1.1//EN" "http://www.w3.org/Graphics/SVG/1.1/DTD/svg11.dtd">
<!-- Creator: CorelDRAW X7 -->
<svg xmlns="http://www.w3.org/2000/svg" xml:space="preserve" width="200px" height="200px" version="1.1" style="shape-rendering:geometricPrecision; text-rendering:geometricPrecision; image-rendering:optimizeQuality; fill-rule:evenodd; clip-rule:evenodd"
viewBox="0 0 200 200"
 xmlns:xlink="http://www.w3.org/1999/xlink">
 <defs>
  <style type="text/css">
   <![CDATA[
    .fil0 {fill:#51B4BD}
   ]]>
  </style>
 </defs>
 <g id="Слой_x0020_1">
  <metadata id="CorelCorpID_0Corel-Layer"/>
  <g id="_975413200">
   <g>
    <path class="fil0" d="M171 29c19,19 29,44 29,71 0,27 -10,52 -29,71 -19,19 -44,29 -71,29 -27,0 -52,-10 -71,-29 -19,-19 -29,-44 -29,-71 0,-27 10,-52 29,-71 19,-19 44,-29 71,-29 27,0 52,10 71,29l0 0zm-9 133c12,-12 20,-28 24,-44 -3,3 -5,5 -7,-4 -2,-14 -15,-5 -23,-10 -8,6 -28,-11 -24,8 5,9 27,-12 16,7 -7,13 -26,41 -23,56 0,21 -22,4 -30,-3 -5,-14 -2,-39 -15,-46 -15,-1 -27,-2 -33,-18 -3,-12 4,-29 16,-32 18,-12 25,13 42,14 5,-6 20,-8 21,-14 -11,-2 15,-9 -1,-14 -8,1 -14,9 -9,16 -17,4 -17,-24 -33,-15 0,14 -26,4 -9,1 6,-2 -9,-10 -1,-8 4,0 18,-5 14,-8 8,-5 14,11 22,-1 5,-9 -3,-11 -9,-6 -4,-4 6,-14 16,-18 3,-1 6,-2 8,-1 5,5 13,6 14,-1 -12,-6 -25,-9 -38,-9 -19,0 -37,7 -52,18 4,2 6,4 2,7 -3,9 -15,21 -26,19 -5,10 -9,20 -10,32 9,3 11,8 9,10 -5,4 -8,10 -9,16 3,18 11,35 24,48 17,16 39,25 62,25 23,0 45,-9 62,-25l0 0zm0 0z"/>
   </g>
  </g>
 </g>
</svg>
