<?xml version="1.0" encoding="UTF-8"?>
<!DOCTYPE svg PUBLIC "-//W3C//DTD SVG 1.1//EN" "http://www.w3.org/Graphics/SVG/1.1/DTD/svg11.dtd">
<!-- Creator: CorelDRAW X7 -->
<svg xmlns="http://www.w3.org/2000/svg" xml:space="preserve" width="200px" height="200px" version="1.1" style="shape-rendering:geometricPrecision; text-rendering:geometricPrecision; image-rendering:optimizeQuality; fill-rule:evenodd; clip-rule:evenodd"
viewBox="0 0 200 200"
 xmlns:xlink="http://www.w3.org/1999/xlink">
 <defs>
  <style type="text/css">
   <![CDATA[
    .fil0 {fill:#999A9A}
   ]]>
  </style>
 </defs>
 <g id="Слой_x0020_1">
  <metadata id="CorelCorpID_0Corel-Layer"/>
  <g id="_974554480">
   <g>
    <path class="fil0" d="M116 105l0 0c-6,0 -11,5 -11,11 0,6 5,10 11,10 6,0 10,-4 10,-10 0,-6 -4,-11 -10,-11l0 0zm-32 -10c6,0 11,-5 11,-11 0,-6 -5,-10 -11,-10 -6,0 -10,4 -10,10 0,6 4,11 10,11l0 0zm32 -21l0 0c-6,0 -11,4 -11,10 0,6 5,11 11,11 6,0 10,-5 10,-11 0,-6 -4,-10 -10,-10l0 0zm10 -53l-52 0 0 21 52 0 0 -21zm21 74c6,0 11,-5 11,-11 0,-6 -5,-10 -11,-10 -6,0 -10,4 -10,10 0,6 4,11 10,11l0 0zm0 31c6,0 11,-4 11,-10 0,-6 -5,-11 -11,-11 -6,0 -10,5 -10,11 0,6 4,10 10,10l0 0zm-63 0c6,0 11,-4 11,-10 0,-6 -5,-11 -11,-11 -6,0 -10,5 -10,11 0,6 4,10 10,10l0 0zm-31 32c6,0 10,-5 10,-11 0,-6 -4,-10 -10,-10 -6,0 -11,4 -11,10 0,6 5,11 11,11l0 0zm126 -137l-11 0 0 21 11 0 0 137 -158 0 0 -137 11 0 0 -21 -11 0c-12,0 -21,9 -21,21l0 137c0,12 9,21 21,21l158 0c12,0 21,-9 21,-21l0 -137c0,-12 -9,-21 -21,-21l0 0zm-126 105c6,0 10,-4 10,-10 0,-6 -4,-11 -10,-11 -6,0 -11,5 -11,11 0,6 5,10 11,10l0 0zm0 -31c6,0 10,-5 10,-11 0,-6 -4,-10 -10,-10 -6,0 -11,4 -11,10 0,6 5,11 11,11l0 0zm31 63c6,0 11,-5 11,-11 0,-6 -5,-10 -11,-10 -6,0 -10,4 -10,10 0,6 4,11 10,11l0 0zm-31 -116c6,0 10,-4 10,-10l0 -21c0,-6 -4,-11 -10,-11 -6,0 -11,5 -11,11l0 21c0,6 5,10 11,10l0 0zm94 0c6,0 11,-4 11,-10l0 -21c0,-6 -5,-11 -11,-11 -6,0 -10,5 -10,11l0 21c0,6 4,10 10,10l0 0zm0 0z"/>
   </g>
  </g>
 </g>
</svg>
