<?xml version="1.0" encoding="UTF-8"?>
<!DOCTYPE svg PUBLIC "-//W3C//DTD SVG 1.1//EN" "http://www.w3.org/Graphics/SVG/1.1/DTD/svg11.dtd">
<!-- Creator: CorelDRAW X7 -->
<svg xmlns="http://www.w3.org/2000/svg" xml:space="preserve" width="250px" height="250px" version="1.1" style="shape-rendering:geometricPrecision; text-rendering:geometricPrecision; image-rendering:optimizeQuality; fill-rule:evenodd; clip-rule:evenodd"
viewBox="0 0 250 250"
 xmlns:xlink="http://www.w3.org/1999/xlink">
 <defs>
  <style type="text/css">
   <![CDATA[
    .fil0 {fill:#DEDEDE}
   ]]>
  </style>
 </defs>
 <g id="Слой_x0020_1">
  <metadata id="CorelCorpID_0Corel-Layer"/>
  <g id="_997661408">
   <g id="_974737584">
    <g>
     <path class="fil0" d="M125 0c-69,0 -125,56 -125,125 0,69 56,125 125,125 69,0 125,-56 125,-125 0,-69 -56,-125 -125,-125l0 0zm0 223c-54,0 -99,-44 -99,-98 0,-55 45,-99 99,-99 54,0 99,44 99,99 0,54 -45,98 -99,98l0 0zm0 0z"/>
     <path class="fil0" d="M190 121l-56 0 0 -67c0,-6 -5,-10 -10,-10 -7,0 -12,4 -12,10l0 77c0,7 5,10 12,10l66 0c6,0 10,-3 10,-10 0,-5 -4,-10 -10,-10l0 0 0 0zm0 0z"/>
    </g>
   </g>
  </g>
 </g>
</svg>
