<?xml version="1.0" encoding="UTF-8"?>
<!DOCTYPE svg PUBLIC "-//W3C//DTD SVG 1.1//EN" "http://www.w3.org/Graphics/SVG/1.1/DTD/svg11.dtd">
<!-- Creator: CorelDRAW X7 -->
<svg xmlns="http://www.w3.org/2000/svg" xml:space="preserve" width="250px" height="249px" version="1.1" style="shape-rendering:geometricPrecision; text-rendering:geometricPrecision; image-rendering:optimizeQuality; fill-rule:evenodd; clip-rule:evenodd"
viewBox="0 0 250 249"
 xmlns:xlink="http://www.w3.org/1999/xlink">
 <defs>
  <style type="text/css">
   <![CDATA[
    .fil0 {fill:#9A9A9A;fill-rule:nonzero}
   ]]>
  </style>
 </defs>
 <g id="Слой_x0020_1">
  <metadata id="CorelCorpID_0Corel-Layer"/>
  <g id="_1089779008">
   <g>
    <path class="fil0" d="M245 221l-66 -65c12,-16 19,-36 19,-57 0,-55 -44,-99 -99,-99 -55,0 -99,44 -99,99 0,55 44,99 99,99 21,0 41,-7 57,-19l65 66c6,6 17,6 24,0 7,-7 7,-17 0,-24zm-146 -46l0 0c-42,0 -76,-34 -76,-76 0,-42 34,-76 76,-76 42,0 76,34 76,76 0,42 -34,76 -76,76z"/>
    <g>
     <path class="fil0" d="M245 221l-66 -65c12,-16 19,-36 19,-57 0,-55 -44,-99 -99,-99 -55,0 -99,44 -99,99 0,55 44,99 99,99 21,0 41,-7 57,-19l65 66c6,6 17,6 24,0 7,-7 7,-17 0,-24zm-146 -46l0 0c-42,0 -76,-34 -76,-76 0,-42 34,-76 76,-76 42,0 76,34 76,76 0,42 -34,76 -76,76z"/>
    </g>
   </g>
  </g>
 </g>
</svg>
