<?xml version="1.0" encoding="UTF-8"?>
<!DOCTYPE svg PUBLIC "-//W3C//DTD SVG 1.1//EN" "http://www.w3.org/Graphics/SVG/1.1/DTD/svg11.dtd">
<!-- Creator: CorelDRAW X7 -->
<svg xmlns="http://www.w3.org/2000/svg" xml:space="preserve" width="200px" height="202px" version="1.1" style="shape-rendering:geometricPrecision; text-rendering:geometricPrecision; image-rendering:optimizeQuality; fill-rule:evenodd; clip-rule:evenodd"
viewBox="0 0 200 202"
 xmlns:xlink="http://www.w3.org/1999/xlink">
 <defs>
  <style type="text/css">
   <![CDATA[
    .fil0 {fill:#4CABB4}
   ]]>
  </style>
 </defs>
 <g id="Слой_x0020_1">
  <metadata id="CorelCorpID_0Corel-Layer"/>
  <path class="fil0" d="M63 83c5,0 8,-4 8,-8l0 -33c0,-15 13,-27 27,-27 15,0 27,12 27,27l0 33c0,4 4,8 8,8 5,0 9,-4 9,-8l0 -33c0,-24 -20,-43 -44,-43 -24,0 -43,19 -43,43l0 33c0,4 3,8 8,8l0 0zm0 0z"/>
  <path class="fil0" d="M194 64l-44 0 0 11c0,9 -8,17 -17,17 -10,0 -17,-8 -17,-17l0 -11 -36 0 0 11c0,9 -7,17 -17,17 -9,0 -17,-8 -17,-17l0 -11 -45 0c-2,0 -4,2 -3,4l29 120c2,7 9,12 16,12l109 0c7,0 15,-5 16,-12l30 -120c0,-2 -1,-4 -4,-4l0 0zm0 0z"/>
 </g>
</svg>
