<?xml version="1.0" encoding="UTF-8"?>
<!DOCTYPE svg PUBLIC "-//W3C//DTD SVG 1.1//EN" "http://www.w3.org/Graphics/SVG/1.1/DTD/svg11.dtd">
<!-- Creator: CorelDRAW X7 -->
<svg xmlns="http://www.w3.org/2000/svg" xml:space="preserve" width="200px" height="45px" version="1.1" style="shape-rendering:geometricPrecision; text-rendering:geometricPrecision; image-rendering:optimizeQuality; fill-rule:evenodd; clip-rule:evenodd"
viewBox="0 0 200 45"
 xmlns:xlink="http://www.w3.org/1999/xlink">
 <defs>
  <style type="text/css">
   <![CDATA[
    .fil0 {fill:#18B2C0;fill-rule:nonzero}
   ]]>
  </style>
 </defs>
 <g id="Слой_x0020_1">
  <metadata id="CorelCorpID_0Corel-Layer"/>
  <g id="_803005712">
   <g>
    <path class="fil0" d="M45 23c0,12 -10,22 -22,22 -13,0 -23,-10 -23,-22 0,-13 10,-23 23,-23 12,0 22,10 22,23z"/>
    <g>
     <path class="fil0" d="M45 23c0,12 -10,22 -22,22 -13,0 -23,-10 -23,-22 0,-13 10,-23 23,-23 12,0 22,10 22,23z"/>
     <path class="fil0" d="M123 23c0,12 -10,22 -23,22 -13,0 -23,-10 -23,-22 0,-13 10,-23 23,-23 13,0 23,10 23,23z"/>
     <path class="fil0" d="M123 23c0,12 -10,22 -23,22 -13,0 -23,-10 -23,-22 0,-13 10,-23 23,-23 13,0 23,10 23,23z"/>
     <path class="fil0" d="M200 23c0,12 -10,22 -23,22 -12,0 -22,-10 -22,-22 0,-13 10,-23 22,-23 13,0 23,10 23,23z"/>
     <path class="fil0" d="M200 23c0,12 -10,22 -23,22 -12,0 -22,-10 -22,-22 0,-13 10,-23 22,-23 13,0 23,10 23,23z"/>
    </g>
   </g>
  </g>
 </g>
</svg>
