<?xml version="1.0" encoding="UTF-8"?>
<!DOCTYPE svg PUBLIC "-//W3C//DTD SVG 1.1//EN" "http://www.w3.org/Graphics/SVG/1.1/DTD/svg11.dtd">
<!-- Creator: CorelDRAW X7 -->
<svg xmlns="http://www.w3.org/2000/svg" xml:space="preserve" width="250px" height="312px" version="1.1" style="shape-rendering:geometricPrecision; text-rendering:geometricPrecision; image-rendering:optimizeQuality; fill-rule:evenodd; clip-rule:evenodd"
viewBox="0 0 250 312"
 xmlns:xlink="http://www.w3.org/1999/xlink">
 <defs>
  <style type="text/css">
   <![CDATA[
    .fil0 {fill:#DDDDDD;fill-rule:nonzero}
   ]]>
  </style>
 </defs>
 <g id="Слой_x0020_1">
  <metadata id="CorelCorpID_0Corel-Layer"/>
  <g id="_698934672">
   <g>
    <path class="fil0" d="M125 0c-69,0 -125,56 -125,125 0,8 1,16 2,24 0,0 1,1 1,4 2,8 5,16 8,24 14,32 43,81 108,133 2,1 4,2 6,2 2,0 4,-1 6,-2 64,-52 94,-101 108,-133 3,-8 6,-16 8,-24 0,-3 1,-4 1,-4 1,-8 2,-16 2,-24 0,-69 -56,-125 -125,-125zm105 145l0 0c0,1 0,1 0,1 0,0 0,1 0,3l0 0c-2,7 -4,14 -8,21 0,0 0,0 0,0 -12,29 -39,73 -97,122 -58,-49 -85,-93 -97,-122 0,0 0,0 0,0 -4,-7 -6,-14 -8,-21l0 0c0,-2 0,-3 0,-3 0,0 0,0 0,-1 -2,-6 -2,-13 -2,-20 0,-59 48,-107 107,-107 59,0 107,48 107,107 0,7 0,14 -2,20z"/>
    <g>
     <path class="fil0" d="M125 0c-69,0 -125,56 -125,125 0,8 1,16 2,24 0,0 1,1 1,4 2,8 5,16 8,24 14,32 43,81 108,133 2,1 4,2 6,2 2,0 4,-1 6,-2 64,-52 94,-101 108,-133 3,-8 6,-16 8,-24 0,-3 1,-4 1,-4 1,-8 2,-16 2,-24 0,-69 -56,-125 -125,-125zm105 145l0 0c0,1 0,1 0,1 0,0 0,1 0,3l0 0c-2,7 -4,14 -8,21 0,0 0,0 0,0 -12,29 -39,73 -97,122 -58,-49 -85,-93 -97,-122 0,0 0,0 0,0 -4,-7 -6,-14 -8,-21l0 0c0,-2 0,-3 0,-3 0,0 0,0 0,-1 -2,-6 -2,-13 -2,-20 0,-59 48,-107 107,-107 59,0 107,48 107,107 0,7 0,14 -2,20z"/>
     <path class="fil0" d="M125 47c-44,0 -79,36 -79,79 0,44 35,80 79,80 44,0 79,-36 79,-80 0,-43 -35,-79 -79,-79zm0 141l0 0c-34,0 -62,-28 -62,-62 0,-34 28,-61 62,-61 34,0 62,27 62,61 0,34 -28,62 -62,62z"/>
     <path class="fil0" d="M125 47c-44,0 -79,36 -79,79 0,44 35,80 79,80 44,0 79,-36 79,-80 0,-43 -35,-79 -79,-79zm0 141l0 0c-34,0 -62,-28 -62,-62 0,-34 28,-61 62,-61 34,0 62,27 62,61 0,34 -28,62 -62,62z"/>
    </g>
   </g>
  </g>
 </g>
</svg>
