<?xml version="1.0" encoding="UTF-8"?>
<!DOCTYPE svg PUBLIC "-//W3C//DTD SVG 1.1//EN" "http://www.w3.org/Graphics/SVG/1.1/DTD/svg11.dtd">
<!-- Creator: CorelDRAW X7 -->
<svg xmlns="http://www.w3.org/2000/svg" xml:space="preserve" width="200px" height="173px" version="1.1" style="shape-rendering:geometricPrecision; text-rendering:geometricPrecision; image-rendering:optimizeQuality; fill-rule:evenodd; clip-rule:evenodd"
viewBox="0 0 200 173"
 xmlns:xlink="http://www.w3.org/1999/xlink">
 <defs>
  <style type="text/css">
   <![CDATA[
    .fil0 {fill:#CDCDCD;fill-rule:nonzero}
   ]]>
  </style>
 </defs>
 <g id="Слой_x0020_1">
  <metadata id="CorelCorpID_0Corel-Layer"/>
  <g id="_820577168">
   <path class="fil0" d="M176 0l-152 0c-13,0 -24,9 -24,21l0 104c0,12 11,21 24,21l47 0 29 27 29 -27 47 0c13,0 24,-9 24,-21l0 -104c0,-12 -11,-21 -24,-21zm-42 121l0 0 -34 -18 -34 18 6 -38 -27 -27 38 -5 17 -35 17 35 39 5 -28 27 6 38z"/>
   <path class="fil0" d="M176 0l-152 0c-13,0 -24,9 -24,21l0 104c0,12 11,21 24,21l47 0 29 27 29 -27 47 0c13,0 24,-9 24,-21l0 -104c0,-12 -11,-21 -24,-21zm-42 121l0 0 -34 -18 -34 18 6 -38 -27 -27 38 -5 17 -35 17 35 39 5 -28 27 6 38z"/>
  </g>
 </g>
</svg>
