<?xml version="1.0" encoding="UTF-8"?>
<!DOCTYPE svg PUBLIC "-//W3C//DTD SVG 1.1//EN" "http://www.w3.org/Graphics/SVG/1.1/DTD/svg11.dtd">
<!-- Creator: CorelDRAW X7 -->
<svg xmlns="http://www.w3.org/2000/svg" xml:space="preserve" width="73px" height="34px" version="1.1" style="shape-rendering:geometricPrecision; text-rendering:geometricPrecision; image-rendering:optimizeQuality; fill-rule:evenodd; clip-rule:evenodd"
viewBox="0 0 73 34"
 xmlns:xlink="http://www.w3.org/1999/xlink">
 <defs>
  <style type="text/css">
   <![CDATA[
    .fil0 {fill:#18B2C0;fill-rule:nonzero}
   ]]>
  </style>
 </defs>
 <g id="Слой_x0020_1">
  <metadata id="CorelCorpID_0Corel-Layer"/>
  <g id="_769805872">
   <g>
    <g>
     <g>
      <path class="fil0" d="M73 16l-16 -16c-1,0 -1,0 -1,0 0,0 -1,0 -1,0l-2 2c0,0 0,1 0,1 0,0 0,0 0,1l14 13 -14 13c0,1 0,1 0,1 0,0 0,1 0,1l2 2c0,0 1,0 1,0 0,0 0,0 1,0l16 -16c0,0 0,-1 0,-1l0 0c0,0 0,-1 0,-1z"/>
      <path class="fil0" d="M73 16l-16 -16c-1,0 -1,0 -1,0 0,0 -1,0 -1,0l-2 2c0,0 0,1 0,1 0,0 0,0 0,1l14 13 -14 13c0,1 0,1 0,1 0,0 0,1 0,1l2 2c0,0 1,0 1,0 0,0 0,0 1,0l16 -16c0,0 0,-1 0,-1l0 0c0,0 0,-1 0,-1z"/>
     </g>
    </g>
   </g>
   <g>
    <g>
     <g>
      <path class="fil0" d="M0 16l16 -16c1,0 1,0 1,0 0,0 1,0 1,0l2 2c0,0 0,1 0,1 0,0 0,0 0,1l-14 13 14 13c0,1 0,1 0,1 0,0 0,1 0,1l-2 2c0,0 -1,0 -1,0 0,0 0,0 -1,0l-16 -16c0,0 0,-1 0,-1l0 0c0,0 0,-1 0,-1z"/>
      <path class="fil0" d="M0 16l16 -16c1,0 1,0 1,0 0,0 1,0 1,0l2 2c0,0 0,1 0,1 0,0 0,0 0,1l-14 13 14 13c0,1 0,1 0,1 0,0 0,1 0,1l-2 2c0,0 -1,0 -1,0 0,0 0,0 -1,0l-16 -16c0,0 0,-1 0,-1l0 0c0,0 0,-1 0,-1z"/>
     </g>
    </g>
   </g>
  </g>
 </g>
</svg>
