<?xml version="1.0" encoding="UTF-8"?>
<!DOCTYPE svg PUBLIC "-//W3C//DTD SVG 1.1//EN" "http://www.w3.org/Graphics/SVG/1.1/DTD/svg11.dtd">
<!-- Creator: CorelDRAW X7 -->
<svg xmlns="http://www.w3.org/2000/svg" xml:space="preserve" width="200px" height="200px" version="1.1" style="shape-rendering:geometricPrecision; text-rendering:geometricPrecision; image-rendering:optimizeQuality; fill-rule:evenodd; clip-rule:evenodd"
viewBox="0 0 200 200"
 xmlns:xlink="http://www.w3.org/1999/xlink">
 <defs>
  <style type="text/css">
   <![CDATA[
    .fil0 {fill:#4CABB4}
   ]]>
  </style>
 </defs>
 <g id="Слой_x0020_1">
  <metadata id="CorelCorpID_0Corel-Layer"/>
  <g id="_767286288">
   <g>
    <path class="fil0" d="M187 50c-9,-16 -21,-28 -37,-37 -15,-9 -32,-13 -50,-13 -18,0 -35,4 -50,13 -16,9 -28,21 -37,37 -9,15 -13,32 -13,50 0,18 4,35 13,50 9,16 21,28 37,37 15,9 32,13 50,13 18,0 35,-4 50,-13 16,-9 28,-21 37,-37 9,-15 13,-32 13,-50 0,-18 -4,-35 -13,-50l0 0zm-22 35l-71 71c-2,1 -4,2 -6,2 -2,0 -4,-1 -6,-2l-47 -48c-2,-1 -2,-3 -2,-5 0,-3 0,-5 2,-6l12 -12c1,-2 3,-3 6,-3 2,0 4,1 5,3l30 29 53 -53c2,-1 4,-2 6,-2 2,0 4,1 6,2l11 12c2,2 3,4 3,6 0,2 -1,4 -2,6l0 0zm0 0z"/>
   </g>
  </g>
 </g>
</svg>
