<?xml version="1.0" encoding="UTF-8"?>
<!DOCTYPE svg PUBLIC "-//W3C//DTD SVG 1.1//EN" "http://www.w3.org/Graphics/SVG/1.1/DTD/svg11.dtd">
<!-- Creator: CorelDRAW X7 -->
<svg xmlns="http://www.w3.org/2000/svg" xml:space="preserve" width="200px" height="290px" version="1.1" style="shape-rendering:geometricPrecision; text-rendering:geometricPrecision; image-rendering:optimizeQuality; fill-rule:evenodd; clip-rule:evenodd"
viewBox="0 0 200 290"
 xmlns:xlink="http://www.w3.org/1999/xlink">
 <defs>
  <style type="text/css">
   <![CDATA[
    .fil0 {fill:#18B2C0;fill-rule:nonzero}
   ]]>
  </style>
 </defs>
 <g id="Слой_x0020_1">
  <metadata id="CorelCorpID_0Corel-Layer"/>
  <g>
   <path id="path22" class="fil0" d="M99 134c-12,0 -27,-6 -34,-24 -1,-3 0,-8 0,-9l0 -8c0,-23 19,-33 36,-33 20,0 36,16 36,37 0,21 -17,37 -38,37l0 0zm96 -62c-1,-4 -3,-8 -4,-12 -19,-44 -60,-60 -92,-60 -44,0 -93,29 -99,90l0 12c0,1 0,5 0,8 4,29 27,59 44,88 18,31 37,62 56,92 12,-20 23,-40 35,-59 3,-6 6,-12 9,-17 2,-4 6,-7 8,-11 18,-33 48,-67 48,-100l0 -14c0,-3 -4,-16 -5,-17l0 0zm0 0l0 0 0 0z"/>
  </g>
 </g>
</svg>
