<?xml version="1.0" encoding="UTF-8"?>
<!DOCTYPE svg PUBLIC "-//W3C//DTD SVG 1.1//EN" "http://www.w3.org/Graphics/SVG/1.1/DTD/svg11.dtd">
<!-- Creator: CorelDRAW X7 -->
<svg xmlns="http://www.w3.org/2000/svg" xml:space="preserve" width="250px" height="343px" version="1.1" style="shape-rendering:geometricPrecision; text-rendering:geometricPrecision; image-rendering:optimizeQuality; fill-rule:evenodd; clip-rule:evenodd"
viewBox="0 0 250 343"
 xmlns:xlink="http://www.w3.org/1999/xlink">
 <defs>
  <style type="text/css">
   <![CDATA[
    .fil0 {fill:#9A9A9A;fill-rule:nonzero}
   ]]>
  </style>
 </defs>
 <g id="Слой_x0020_1">
  <metadata id="CorelCorpID_0Corel-Layer"/>
  <g id="_989002816">
   <g>
    <path class="fil0" d="M21 335c0,4 3,8 7,8l194 0c4,0 7,-4 7,-8l0 -246 -208 0 0 246zm147 -204l0 0 28 0 0 166 -28 0 0 -166zm-57 0l0 0 28 0 0 166 -28 0 0 -166zm-57 0l0 0 28 0 0 166 -28 0 0 -166z"/>
    <g>
     <path class="fil0" d="M21 335c0,4 3,8 7,8l194 0c4,0 7,-4 7,-8l0 -246 -208 0 0 246zm147 -204l0 0 28 0 0 166 -28 0 0 -166zm-57 0l0 0 28 0 0 166 -28 0 0 -166zm-57 0l0 0 28 0 0 166 -28 0 0 -166z"/>
     <path class="fil0" d="M189 35l0 -27c0,-4 -3,-8 -7,-8l-114 0c-4,0 -7,4 -7,8l0 37 -53 0c-5,0 -8,3 -8,7l0 19c0,5 3,8 8,8l234 0c5,0 8,-3 8,-8l0 -19c0,-4 -3,-7 -8,-7l-53 0 0 -10zm-28 8l0 0 -72 0 0 -14 72 0 0 14z"/>
    </g>
   </g>
  </g>
 </g>
</svg>
