<?xml version="1.0" encoding="UTF-8"?>
<!DOCTYPE svg PUBLIC "-//W3C//DTD SVG 1.1//EN" "http://www.w3.org/Graphics/SVG/1.1/DTD/svg11.dtd">
<!-- Creator: CorelDRAW X7 -->
<svg xmlns="http://www.w3.org/2000/svg" xml:space="preserve" width="200px" height="113px" version="1.1" style="shape-rendering:geometricPrecision; text-rendering:geometricPrecision; image-rendering:optimizeQuality; fill-rule:evenodd; clip-rule:evenodd"
viewBox="0 0 200 113"
 xmlns:xlink="http://www.w3.org/1999/xlink">
 <defs>
  <style type="text/css">
   <![CDATA[
    .fil0 {fill:#8C8C8C}
   ]]>
  </style>
 </defs>
 <g id="Слой_x0020_1">
  <metadata id="CorelCorpID_0Corel-Layer"/>
  <g id="_979373104">
   <g>
    <path class="fil0" d="M197 39c-2,0 -4,2 -4,5l0 25c0,3 2,5 4,5 2,0 3,-2 3,-5l0 -25c0,-3 -1,-5 -3,-5l0 0zm0 0z"/>
    <path class="fil0" d="M3 39c-2,0 -3,2 -3,5 0,6 0,19 0,25 0,3 1,5 3,5 2,0 4,-2 4,-5 0,-6 0,-19 0,-25 0,-3 -2,-5 -4,-5l0 0zm0 0z"/>
    <path class="fil0" d="M46 0c-6,0 -12,6 -12,13 0,21 0,65 0,87 0,7 6,13 12,13 6,0 11,-6 11,-13l0 -33 84 0 0 33c0,7 5,13 12,13 6,0 11,-6 11,-13l0 -87c0,-7 -5,-13 -11,-13 -7,0 -12,6 -12,13l0 33 -84 0 0 -33c0,-7 -5,-13 -11,-13l0 0zm0 0z"/>
    <path class="fil0" d="M179 17l-1 0c-5,0 -9,4 -9,9l0 61c0,5 4,9 9,9l1 0c5,0 9,-4 9,-9 0,-15 0,-46 0,-61 0,-5 -4,-9 -9,-9l0 0zm0 0z"/>
    <path class="fil0" d="M21 17l-1 0c-5,0 -9,4 -9,9l0 61c0,5 4,9 9,9l1 0c5,0 9,-4 9,-9l0 -61c0,-5 -4,-9 -9,-9l0 0zm0 0z"/>
   </g>
  </g>
 </g>
</svg>
