<?xml version="1.0" encoding="UTF-8"?>
<!DOCTYPE svg PUBLIC "-//W3C//DTD SVG 1.1//EN" "http://www.w3.org/Graphics/SVG/1.1/DTD/svg11.dtd">
<!-- Creator: CorelDRAW X7 -->
<svg xmlns="http://www.w3.org/2000/svg" xml:space="preserve" width="200px" height="235px" version="1.1" style="shape-rendering:geometricPrecision; text-rendering:geometricPrecision; image-rendering:optimizeQuality; fill-rule:evenodd; clip-rule:evenodd"
viewBox="0 0 200 235"
 xmlns:xlink="http://www.w3.org/1999/xlink">
 <defs>
  <style type="text/css">
   <![CDATA[
    .fil0 {fill:#9A9A9A}
   ]]>
  </style>
 </defs>
 <g id="Слой_x0020_1">
  <metadata id="CorelCorpID_0Corel-Layer"/>
  <g id="_764561888">
   <g>
    <path class="fil0" d="M100 235c13,0 24,-10 24,-23l-48 0c0,13 11,23 24,23l0 0zm76 -70l0 -65c0,-37 -25,-66 -58,-74l0 -8c0,-9 -9,-18 -18,-18 -9,0 -18,9 -18,18l0 8c-33,9 -58,39 -58,74l0 65 -24 23 0 12 200 0 0 -12 -24 -23zm0 0z"/>
   </g>
  </g>
 </g>
</svg>
