<?xml version="1.0" encoding="UTF-8"?>
<!DOCTYPE svg PUBLIC "-//W3C//DTD SVG 1.1//EN" "http://www.w3.org/Graphics/SVG/1.1/DTD/svg11.dtd">
<!-- Creator: CorelDRAW X7 -->
<svg xmlns="http://www.w3.org/2000/svg" xml:space="preserve" width="200px" height="190px" version="1.1" style="shape-rendering:geometricPrecision; text-rendering:geometricPrecision; image-rendering:optimizeQuality; fill-rule:evenodd; clip-rule:evenodd"
viewBox="0 0 200 190"
 xmlns:xlink="http://www.w3.org/1999/xlink">
 <defs>
  <style type="text/css">
   <![CDATA[
    .fil0 {fill:#8C8C8C}
   ]]>
  </style>
 </defs>
 <g id="Слой_x0020_1">
  <metadata id="CorelCorpID_0Corel-Layer"/>
  <g id="_695761648">
   <g>
    <path class="fil0" d="M20 190l31 0 0 -6 -31 0 0 6zm124 0l31 0 0 -6 -31 0 0 6zm-35 -109l-18 0 0 16 -15 0 0 18 15 0 0 15 18 0 0 -15 16 0 0 -18 -16 0 0 -16zm76 -49l-170 0c-8,0 -15,7 -15,16l0 116c0,9 7,15 15,15l170 0c8,0 15,-6 15,-15l0 -116c0,-9 -7,-16 -15,-16zm-85 117c-24,0 -43,-19 -43,-43 0,-24 19,-43 43,-43 24,0 43,19 43,43 0,24 -19,43 -43,43zm-23 -133c0,-3 3,-6 6,-6l32 0c3,0 6,3 6,6l0 9 10 0 0 -9c0,-9 -7,-16 -16,-16l-32 0c-9,0 -16,7 -16,16l0 9 10 0 0 -9 0 0z"/>
   </g>
  </g>
 </g>
</svg>
