<?xml version="1.0" encoding="UTF-8"?>
<!DOCTYPE svg PUBLIC "-//W3C//DTD SVG 1.1//EN" "http://www.w3.org/Graphics/SVG/1.1/DTD/svg11.dtd">
<!-- Creator: CorelDRAW X7 -->
<svg xmlns="http://www.w3.org/2000/svg" xml:space="preserve" width="250px" height="250px" version="1.1" style="shape-rendering:geometricPrecision; text-rendering:geometricPrecision; image-rendering:optimizeQuality; fill-rule:evenodd; clip-rule:evenodd"
viewBox="0 0 250 250"
 xmlns:xlink="http://www.w3.org/1999/xlink">
 <defs>
  <style type="text/css">
   <![CDATA[
    .fil0 {fill:#DEDEDE}
   ]]>
  </style>
 </defs>
 <g id="Слой_x0020_1">
  <metadata id="CorelCorpID_0Corel-Layer"/>
  <g id="_769809136">
   <g id="_974554480">
    <g>
     <path class="fil0" d="M145 131l0 0c-8,0 -14,6 -14,14 0,7 6,12 14,12 7,0 12,-5 12,-12 0,-8 -5,-14 -12,-14l0 0zm-40 -12c8,0 14,-6 14,-14 0,-7 -6,-12 -14,-12 -7,0 -12,5 -12,12 0,8 5,14 12,14l0 0zm40 -27l0 0c-8,0 -14,5 -14,13 0,7 6,14 14,14 7,0 12,-7 12,-14 0,-8 -5,-13 -12,-13l0 0zm13 -66l-65 0 0 27 65 0 0 -27zm26 93c7,0 13,-6 13,-14 0,-7 -6,-12 -13,-12 -8,0 -13,5 -13,12 0,8 5,14 13,14l0 0zm0 38c7,0 13,-5 13,-12 0,-8 -6,-14 -13,-14 -8,0 -13,6 -13,14 0,7 5,12 13,12l0 0zm-79 0c8,0 14,-5 14,-12 0,-8 -6,-14 -14,-14 -7,0 -12,6 -12,14 0,7 5,12 12,12l0 0zm-39 40c8,0 13,-6 13,-13 0,-8 -5,-13 -13,-13 -7,0 -13,5 -13,13 0,7 6,13 13,13l0 0zm158 -171l-14 0 0 27 14 0 0 171 -198 0 0 -171 14 0 0 -27 -14 0c-15,0 -26,12 -26,27l0 171c0,15 11,26 26,26l198 0c15,0 26,-11 26,-26l0 -171c0,-15 -11,-27 -26,-27l0 0zm-158 131c8,0 13,-5 13,-12 0,-8 -5,-14 -13,-14 -7,0 -13,6 -13,14 0,7 6,12 13,12l0 0zm0 -38c8,0 13,-6 13,-14 0,-7 -5,-12 -13,-12 -7,0 -13,5 -13,12 0,8 6,14 13,14l0 0zm39 78c8,0 14,-6 14,-13 0,-8 -6,-13 -14,-13 -7,0 -12,5 -12,13 0,7 5,13 12,13l0 0zm-39 -144c8,0 13,-5 13,-13l0 -26c0,-8 -5,-14 -13,-14 -7,0 -13,6 -13,14l0 26c0,8 6,13 13,13l0 0zm118 0c7,0 13,-5 13,-13l0 -26c0,-8 -6,-14 -13,-14 -8,0 -13,6 -13,14l0 26c0,8 5,13 13,13l0 0zm0 0z"/>
    </g>
   </g>
  </g>
 </g>
</svg>
