<?xml version="1.0" encoding="UTF-8"?>
<!DOCTYPE svg PUBLIC "-//W3C//DTD SVG 1.1//EN" "http://www.w3.org/Graphics/SVG/1.1/DTD/svg11.dtd">
<!-- Creator: CorelDRAW X7 -->
<svg xmlns="http://www.w3.org/2000/svg" xml:space="preserve" width="200px" height="163px" version="1.1" style="shape-rendering:geometricPrecision; text-rendering:geometricPrecision; image-rendering:optimizeQuality; fill-rule:evenodd; clip-rule:evenodd"
viewBox="0 0 200 163"
 xmlns:xlink="http://www.w3.org/1999/xlink">
 <defs>
  <style type="text/css">
   <![CDATA[
    .fil0 {fill:#8C8C8C}
   ]]>
  </style>
 </defs>
 <g id="Слой_x0020_1">
  <metadata id="CorelCorpID_0Corel-Layer"/>
  <path class="fil0" d="M113 120c-4,2 -9,3 -13,3 -5,0 -9,-1 -13,-3l-58 -36c0,0 -5,-3 -5,4l0 36c0,19 34,39 76,39 42,0 76,-20 76,-39l0 -38c0,-5 -4,-3 -4,-3l-59 37zm0 0z"/>
  <g>
   <path class="fil0" d="M196 56c5,-3 5,-7 0,-10l-88 -44c-5,-3 -12,-3 -16,0l-89 44c-4,3 -4,7 0,10l89 54c4,3 11,3 16,0l88 -54zm0 0l0 0 0 0z"/>
  </g>
  <path class="fil0" d="M193 136l0 -59c0,0 0,-3 -2,-2 -1,0 -5,2 -6,3 -1,2 -1,4 -1,4l0 54c0,1 -1,2 -1,2 -3,2 -5,5 -5,9 0,5 5,10 10,10 6,0 11,-5 11,-10 0,-4 -2,-7 -6,-9 0,0 0,-1 0,-2l0 0zm0 0z"/>
 </g>
</svg>
